# 3ds Max Wavefront OBJ Exporter v0.97b - (c)2007 guruware
# File Created: 09.06.2020 00:22:16

mtllib Door.mtl

#
# object Wall_Door
#

v  0.0000 53.9182 16.4007
v  18.9812 64.8770 16.4007
v  21.9176 53.9182 16.4007
v  10.9588 72.8994 16.4007
v  -0.0000 75.8358 16.4007
v  -10.9588 72.8994 16.4007
v  -18.9812 64.8770 16.4007
v  -21.9176 53.9182 16.4007
v  21.9176 54.0027 12.6069
v  18.9812 64.9615 12.6069
v  28.3526 70.6123 12.6069
v  32.2251 54.0027 12.6069
v  10.9588 72.9838 12.6069
v  15.5812 83.2539 12.6069
v  -0.0000 75.9202 12.6069
v  -0.0000 86.8764 12.6069
v  -10.9588 72.9838 12.6069
v  -15.5812 83.2539 12.6069
v  -18.9812 64.8770 12.6069
v  -28.3526 70.5278 12.6069
v  -21.9176 53.9182 12.6069
v  -32.2251 53.9182 12.6069
v  28.3526 70.6123 25.0727
v  32.2251 54.0027 25.0727
v  15.5812 83.2539 25.0727
v  -0.0000 86.8764 25.0727
v  -15.5812 83.2539 25.0727
v  -28.3526 70.6123 25.0727
v  -32.2251 54.0027 25.0727
v  18.9812 64.9615 25.0727
v  21.9176 54.0027 25.0727
v  10.9588 72.9838 25.0727
v  -0.0000 75.9202 25.0727
v  -10.9588 72.9838 25.0727
v  -18.9812 64.9615 25.0727
v  -21.9176 54.0027 25.0727
v  -0.0000 53.9182 20.1044
v  21.9176 53.9182 20.1044
v  18.9812 64.8770 20.1045
v  10.9588 72.8994 20.1045
v  -0.0000 75.8358 20.1045
v  -10.9588 72.8994 20.1045
v  -18.9812 64.8770 20.1045
v  -21.9176 53.9182 20.1044
v  21.9176 -0.0819 16.4006
v  0.0000 -0.0819 16.4006
v  -21.9176 -0.0819 16.4006
v  32.2251 -0.0819 12.6069
v  21.9176 -0.0819 12.6069
v  -21.9176 -0.0819 12.6069
v  -32.2251 -0.0819 12.6069
v  32.2251 -0.0819 25.0727
v  -32.2251 -0.0819 25.0727
v  21.9176 -0.0819 25.0727
v  -21.9176 -0.0819 25.0727
v  -0.0000 -0.0819 20.1044
v  21.9176 -0.0819 20.1044
v  -21.9176 -0.0819 20.1044
v  -18.2753 44.5606 25.4188
v  -18.2753 44.5606 19.1559
v  -18.2753 43.4886 19.1559
v  -18.2753 43.4886 23.7431
v  -13.2480 44.5606 25.4188
v  -13.2480 44.5606 19.1559
v  -13.2480 43.4886 23.7431
v  -13.2480 43.4886 19.1559
v  -18.2753 23.5654 25.4188
v  -18.2753 24.6374 23.7431
v  -13.2480 23.5654 25.4188
v  -13.2480 24.6374 23.7431
v  -18.2753 23.5654 19.5578
v  -18.2753 24.6374 19.5578
v  -13.2480 23.5654 19.5578
v  -13.2480 24.6374 19.5578
v  -78.7402 0.0000 19.6850
v  -78.7402 0.0000 -19.6850
v  78.7402 0.0000 -19.6850
v  78.7402 0.0000 19.6850
v  -78.7402 118.1102 19.6850
v  78.7402 118.1102 19.6850
v  78.7402 118.1102 -19.6850
v  -78.7402 118.1102 -19.6850
# 82 vertices

vn 0.0000 0.0000 -1.0000
vn -0.0000 0.0000 -1.0000
vn 0.9739 0.2271 -0.0000
vn 0.8729 0.4880 -0.0000
vn 0.4832 0.8755 0.0000
vn 0.4832 0.8755 -0.0000
vn -0.0000 1.0000 0.0000
vn -0.0000 1.0000 -0.0000
vn -0.4838 0.8752 -0.0010
vn -0.4832 0.8755 -0.0000
vn -0.8742 0.4856 -0.0033
vn -0.8728 0.4880 -0.0023
vn -0.9739 0.2271 -0.0015
vn -0.0000 -0.0000 1.0000
vn 0.0000 -0.0000 1.0000
vn 1.0000 -0.0000 -0.0000
vn 1.0000 0.0000 -0.0000
vn -1.0000 0.0000 -0.0000
vn -1.0000 -0.0000 -0.0000
vn -0.9659 -0.2588 0.0044
vn -0.7071 -0.7071 0.0120
vn -0.2588 -0.9658 0.0164
vn 0.2588 -0.9658 0.0164
vn 0.7071 -0.7071 0.0120
vn 0.9659 -0.2588 0.0044
vn -0.9659 -0.2588 -0.0058
vn 0.9659 -0.2588 -0.0000
vn 0.7107 -0.7033 -0.0157
vn 0.7071 -0.7071 -0.0000
vn 0.2588 -0.9657 -0.0215
vn -0.2588 -0.9657 -0.0215
vn -0.7070 -0.7070 -0.0157
vn 0.0000 1.0000 -0.0000
vn 1.0000 0.0000 0.0000
vn 0.0000 -1.0000 -0.0000
vn 0.0000 0.0000 1.0000
vn 0.0000 -0.0000 -1.0000
# 37 vertex normals

vt 0.3668 0.5842 0.3007
vt 0.4861 0.6417 0.3007
vt 0.5045 0.5842 0.3007
vt 0.4357 0.6838 0.3007
vt 0.3668 0.6993 0.3007
vt 0.2980 0.6838 0.3007
vt 0.2476 0.6417 0.3007
vt 0.2292 0.5842 0.3007
vt 0.8977 0.3922 0.0000
vt 0.8787 0.4624 0.0000
vt 0.9392 0.4986 0.0000
vt 0.9642 0.3922 0.0000
vt 0.8270 0.5138 0.0000
vt 0.8568 0.5795 0.0000
vt 0.7563 0.5326 0.0000
vt 0.7563 0.6027 0.0000
vt 0.6857 0.5138 0.0000
vt 0.6558 0.5795 0.0000
vt 0.6339 0.4619 0.0000
vt 0.5735 0.4980 0.0000
vt 0.6150 0.3917 0.0000
vt 0.5485 0.3917 0.0000
vt 0.1696 0.6257 0.0000
vt 0.1706 0.5666 0.0000
vt 0.2138 0.5673 0.0000
vt 0.2128 0.6264 0.0000
vt 0.1717 0.5043 0.0000
vt 0.2149 0.5050 0.0000
vt 0.1726 0.4488 0.0000
vt 0.2159 0.4496 0.0000
vt 0.1736 0.3933 0.0000
vt 0.2168 0.3941 0.0000
vt 0.1747 0.3308 0.0000
vt 0.2179 0.3318 0.0000
vt 0.1757 0.2717 0.0000
vt 0.2189 0.2727 0.0000
vt 0.5735 0.4986 0.0000
vt 0.6339 0.4624 0.0000
vt 0.5485 0.3922 0.0000
vt 0.6150 0.3922 0.0000
vt 0.3668 0.5842 0.6993
vt 0.5045 0.5842 0.6993
vt 0.4861 0.6417 0.6993
vt 0.4357 0.6838 0.6993
vt 0.3668 0.6993 0.6993
vt 0.2980 0.6838 0.6993
vt 0.2476 0.6417 0.6993
vt 0.2292 0.5842 0.6993
vt 0.5045 0.3007 0.3007
vt 0.3668 0.3007 0.3007
vt 0.2292 0.3007 0.3007
vt 0.9642 0.0459 0.0000
vt 0.8977 0.0459 0.0000
vt 0.6150 0.0459 0.0000
vt 0.5485 0.0459 0.0000
vt 0.2095 0.8139 0.0000
vt 0.1663 0.8132 0.0000
vt 0.1787 0.0845 0.0000
vt 0.2219 0.0852 0.0000
vt 0.3668 0.3007 0.6993
vt 0.5045 0.3007 0.6993
vt 0.2292 0.3007 0.6993
vt 0.0775 0.3098 0.0000
vt 0.0796 0.3693 0.0000
vt 0.0535 0.3698 0.0000
vt 0.0514 0.3103 0.0000
vt 0.0815 0.4289 0.0000
vt 0.0554 0.4294 0.0000
vt 0.0830 0.4884 0.0000
vt 0.0569 0.4890 0.0000
vt 0.0839 0.5480 0.0000
vt 0.0578 0.5486 0.0000
vt 0.0845 0.6076 0.0000
vt 0.0584 0.6082 0.0000
vt 0.0848 0.6672 0.0000
vt 0.0587 0.6677 0.0000
vt 0.0862 0.9512 0.0000
vt 0.0601 0.9514 0.0000
vt 0.0672 0.0259 0.0000
vt 0.0411 0.0269 0.0000
vt 0.0830 0.6070 0.0000
vt 0.0822 0.6665 0.0000
vt 0.0532 0.6669 0.0000
vt 0.0541 0.6074 0.0000
vt 0.0780 0.9501 0.0000
vt 0.0491 0.9500 0.0000
vt 0.0728 0.0264 0.0000
vt 0.0798 0.3095 0.0000
vt 0.0508 0.3099 0.0000
vt 0.0439 0.0269 0.0000
vt 0.0812 0.3689 0.0000
vt 0.0523 0.3694 0.0000
vt 0.0826 0.4287 0.0000
vt 0.0536 0.4288 0.0000
vt 0.0830 0.4881 0.0000
vt 0.0540 0.4883 0.0000
vt 0.0834 0.5476 0.0000
vt 0.0544 0.5479 0.0000
vt 0.1217 0.1760 0.0000
vt 0.1212 0.2099 0.0000
vt 0.1182 0.2123 0.0000
vt 0.1142 0.1774 0.0000
vt 0.1508 0.1766 0.0000
vt 0.1501 0.2104 0.0000
vt 0.1582 0.1782 0.0000
vt 0.1530 0.2129 0.0000
vt 0.4754 0.0315 0.0000
vt 0.5330 0.0315 0.0000
vt 0.5330 0.0715 0.0000
vt 0.4754 0.0715 0.0000
vt 0.1242 0.0554 0.0000
vt 0.1167 0.0537 0.0000
vt 0.1532 0.0560 0.0000
vt 0.1606 0.0546 0.0000
vt 0.2386 0.0315 0.0000
vt 0.2386 0.0715 0.0000
vt 0.1246 0.0239 0.0000
vt 0.1223 0.0212 0.0000
vt 0.1537 0.0245 0.0000
vt 0.1565 0.0222 0.0000
vt 0.1860 0.0315 0.0000
vt 0.1860 0.0715 0.0000
vt 0.7164 0.7039 0.0000
vt 0.7673 0.7039 0.0000
vt 0.7673 0.9075 0.0000
vt 0.7164 0.9075 0.0000
vt 0.9708 0.7039 0.0000
vt 0.9708 0.9075 0.0000
vt 0.9199 0.9075 0.0000
vt 0.9199 0.7039 0.0000
vt 0.5638 0.9075 0.0000
vt 0.5638 0.7039 0.0000
vt 0.7164 0.9584 0.0000
vt 0.5638 0.9584 0.0000
vt 0.7164 0.6531 0.0000
vt 0.5638 0.6531 0.0000
# 136 texture coords

o Wall_Door
g Wall_Door
usemtl Material__77
f 1/1/1 2/2/2 3/3/1 
f 1/1/1 4/4/2 2/2/2 
f 1/1/1 5/5/1 4/4/2 
f 1/1/1 6/6/1 5/5/1 
f 1/1/1 7/7/1 6/6/1 
f 1/1/1 8/8/1 7/7/1 
f 9/9/1 10/10/1 11/11/1 
f 11/11/1 12/12/1 9/9/1 
f 10/10/1 13/13/2 14/14/2 
f 14/14/2 11/11/1 10/10/1 
f 13/13/2 15/15/1 16/16/1 
f 16/16/1 14/14/2 13/13/2 
f 15/15/1 17/17/2 18/18/1 
f 18/18/1 16/16/1 15/15/1 
f 17/17/2 19/19/2 20/20/2 
f 20/20/2 18/18/1 17/17/2 
f 19/19/2 21/21/1 22/22/2 
f 22/22/2 20/20/2 19/19/2 
f 12/23/3 11/24/4 23/25/4 
f 23/25/4 24/26/3 12/23/3 
f 11/24/4 14/27/5 25/28/6 
f 25/28/6 23/25/4 11/24/4 
f 14/27/5 16/29/7 26/30/8 
f 26/30/8 25/28/6 14/27/5 
f 16/29/7 18/31/9 27/32/10 
f 27/32/10 26/30/8 16/29/7 
f 18/31/9 20/33/11 28/34/12 
f 28/34/12 27/32/10 18/31/9 
f 20/33/11 22/35/13 29/36/13 
f 29/36/13 28/34/12 20/33/11 
f 24/12/14 23/11/14 30/10/14 
f 30/10/14 31/9/15 24/12/14 
f 23/11/14 25/14/14 32/13/14 
f 32/13/14 30/10/14 23/11/14 
f 25/14/14 26/16/15 33/15/15 
f 33/15/15 32/13/14 25/14/14 
f 26/16/15 27/18/15 34/17/15 
f 34/17/15 33/15/15 26/16/15 
f 27/18/15 28/37/15 35/38/15 
f 35/38/15 34/17/15 27/18/15 
f 28/37/15 29/39/15 36/40/15 
f 36/40/15 35/38/15 28/37/15 
f 37/41/15 38/42/15 39/43/15 
f 37/41/15 39/43/15 40/44/14 
f 37/41/15 40/44/14 41/45/15 
f 37/41/15 41/45/15 42/46/15 
f 37/41/15 42/46/15 43/47/14 
f 37/41/15 43/47/14 44/48/15 
f 1/1/1 3/3/1 45/49/1 
f 45/49/1 46/50/1 1/1/1 
f 8/8/1 1/1/1 46/50/1 
f 46/50/1 47/51/1 8/8/1 
f 9/9/1 12/12/1 48/52/1 
f 48/52/1 49/53/1 9/9/1 
f 22/22/1 21/21/1 50/54/1 
f 50/54/1 51/55/1 22/22/1 
f 12/23/16 24/26/16 52/56/16 
f 52/56/17 48/57/17 12/23/17 
f 29/36/18 22/35/18 51/58/18 
f 51/58/19 53/59/19 29/36/19 
f 24/12/15 31/9/15 54/53/15 
f 54/53/15 52/52/15 24/12/15 
f 36/40/15 29/39/15 53/55/15 
f 53/55/15 55/54/15 36/40/15 
f 38/42/15 37/41/15 56/60/15 
f 56/60/15 57/61/15 38/42/15 
f 37/41/15 44/48/15 58/62/15 
f 58/62/14 56/60/14 37/41/14 
f 31/63/20 30/64/20 39/65/20 
f 39/65/20 38/66/20 31/63/20 
f 30/64/21 32/67/21 40/68/21 
f 40/68/21 39/65/21 30/64/21 
f 32/67/22 33/69/22 41/70/22 
f 41/70/22 40/68/22 32/67/22 
f 33/69/23 34/71/23 42/72/23 
f 42/72/23 41/70/23 33/69/23 
f 34/71/24 35/73/24 43/74/24 
f 43/74/24 42/72/24 34/71/24 
f 35/73/25 36/75/25 44/76/25 
f 44/76/25 43/74/25 35/73/25 
f 36/75/17 55/77/17 58/78/17 
f 58/78/17 44/76/17 36/75/17 
f 54/79/18 31/63/18 38/66/18 
f 38/66/18 57/80/18 54/79/18 
f 10/81/26 9/82/26 3/83/26 
f 3/83/26 2/84/26 10/81/26 
f 9/82/18 49/85/18 45/86/18 
f 45/86/18 3/83/18 9/82/18 
f 50/87/17 21/88/17 8/89/17 
f 8/89/17 47/90/17 50/87/17 
f 21/88/27 19/91/27 7/92/27 
f 7/92/27 8/89/27 21/88/27 
f 19/91/28 17/93/28 6/94/28 
f 6/94/29 7/92/29 19/91/29 
f 17/93/30 15/95/30 5/96/30 
f 5/96/30 6/94/30 17/93/30 
f 15/95/31 13/97/31 4/98/31 
f 4/98/31 5/96/31 15/95/31 
f 13/97/32 10/81/32 2/84/32 
f 2/84/32 4/98/32 13/97/32 
f 59/99/19 60/100/18 61/101/19 
f 61/101/19 62/102/19 59/99/19 
f 63/103/33 64/104/33 60/100/33 
f 60/100/33 59/99/33 63/103/33 
f 65/105/34 66/106/17 64/104/34 
f 64/104/34 63/103/34 65/105/34 
f 62/107/35 61/108/35 66/109/35 
f 66/109/35 65/110/35 62/107/35 
f 67/111/19 59/99/19 62/102/19 
f 62/102/19 68/112/18 67/111/19 
f 69/113/36 63/103/36 59/99/36 
f 59/99/36 67/111/36 69/113/36 
f 70/114/34 65/105/34 63/103/34 
f 63/103/34 69/113/34 70/114/34 
f 68/115/37 62/107/37 65/110/37 
f 65/110/37 70/116/1 68/115/37 
f 71/117/18 67/111/19 68/112/18 
f 68/112/18 72/118/18 71/117/18 
f 73/119/35 69/113/35 67/111/35 
f 67/111/35 71/117/35 73/119/35 
f 74/120/34 70/114/34 69/113/34 
f 69/113/34 73/119/34 74/120/34 
f 72/121/33 68/115/33 70/116/33 
f 70/116/33 74/122/33 72/121/33 
f 64/104/1 66/106/1 61/101/1 
f 61/101/1 60/100/1 64/104/1 
f 73/119/1 71/117/1 72/118/1 
f 74/120/1 73/119/1 72/118/1 
f 75/123/35 76/124/35 77/125/35 
f 77/125/35 78/126/35 75/123/35 
f 79/127/33 80/128/33 81/129/33 
f 81/129/33 82/130/33 79/127/33 
f 75/123/36 78/126/36 80/131/36 
f 80/131/36 79/132/36 75/123/36 
f 78/126/17 77/133/17 81/134/17 
f 81/134/17 80/131/17 78/126/17 
f 77/125/1 76/124/1 82/130/1 
f 82/130/1 81/129/1 77/125/1 
f 76/135/18 75/123/18 79/132/18 
f 79/132/18 82/136/18 76/135/18 
# 140 faces

