# 3ds Max Wavefront OBJ Exporter v0.97b - (c)2007 guruware
# File Created: 07.06.2020 21:10:02

mtllib Wall.mtl

#
# object Wall
#

v  -78.7402 0.0000 19.6850
v  -78.7402 0.0000 -19.6850
v  78.7402 0.0000 -19.6850
v  78.7402 0.0000 19.6850
v  -78.7402 118.1102 19.6850
v  78.7402 118.1102 19.6850
v  78.7402 118.1102 -19.6850
v  -78.7402 118.1102 -19.6850
# 8 vertices

vn 0.0000 -1.0000 -0.0000
vn 0.0000 1.0000 -0.0000
vn 0.0000 0.0000 1.0000
vn 1.0000 0.0000 -0.0000
vn 0.0000 0.0000 -1.0000
vn -1.0000 0.0000 -0.0000
# 6 vertex normals

vt 1.0000 0.3337 0.0000
vt 1.0000 0.6663 0.0000
vt 0.0000 0.6663 0.0000
vt 0.0000 0.3337 0.0000
vt 0.0000 0.3337 1.0000
vt 1.0000 0.3337 1.0000
vt 1.0000 0.6663 1.0000
vt 0.0000 0.6663 1.0000
vt 0.0000 0.0000 0.3337
vt 1.0000 0.0000 0.3337
vt 1.0000 1.0000 0.3337
vt 0.0000 1.0000 0.3337
vt 0.3337 0.0000 1.0000
vt 0.6663 0.0000 1.0000
vt 0.6663 1.0000 1.0000
vt 0.3337 1.0000 1.0000
vt 0.0000 0.0000 0.6663
vt 1.0000 0.0000 0.6663
vt 1.0000 1.0000 0.6663
vt 0.0000 1.0000 0.6663
vt 0.3337 0.0000 0.0000
vt 0.6663 0.0000 0.0000
vt 0.6663 1.0000 0.0000
vt 0.3337 1.0000 0.0000
# 24 texture coords

o Wall
g Wall
usemtl Material__25
f 1/1/1 2/2/1 3/3/1 
f 3/3/1 4/4/1 1/1/1 
f 5/5/2 6/6/2 7/7/2 
f 7/7/2 8/8/2 5/5/2 
f 1/9/3 4/10/3 6/11/3 
f 6/11/3 5/12/3 1/9/3 
f 4/13/4 3/14/4 7/15/4 
f 7/15/4 6/16/4 4/13/4 
f 3/17/5 2/18/5 8/19/5 
f 8/19/5 7/20/5 3/17/5 
f 2/21/6 1/22/6 5/23/6 
f 5/23/6 8/24/6 2/21/6 
# 12 faces

