# 3ds Max Wavefront OBJ Exporter v0.97b - (c)2007 guruware
# File Created: 19.06.2020 18:09:30

mtllib 2.mtl

#
# object Object197
#

v  19.6850 0.0000 0.0000
v  -19.6850 0.0000 0.0000
v  -19.6850 0.0000 -196.8504
v  19.6850 0.0000 -196.8504
v  19.6850 118.1102 0.0000
v  19.6850 118.1102 -196.8504
v  -19.6850 118.1102 -196.8504
v  -19.6850 118.1102 0.0000
v  19.6850 0.0000 196.8503
v  -19.6850 0.0000 196.8503
v  -19.6850 0.0000 -0.0001
v  19.6850 0.0000 -0.0001
v  19.6850 118.1102 196.8503
v  19.6850 118.1102 -0.0001
v  -19.6850 118.1102 -0.0001
v  -19.6850 118.1102 196.8503
# 16 vertices

vn 0.0000 -1.0000 -0.0000
vn 0.0000 1.0000 -0.0000
vn -1.0000 0.0000 0.0000
vn 0.0000 0.0000 1.0000
vn 1.0000 0.0000 -0.0000
vn -0.0000 0.0000 -1.0000
# 6 vertex normals

vt 0.0000 0.6533 0.0000
vt 0.0000 0.3467 0.0000
vt 1.0000 0.3467 0.0000
vt 1.0000 0.6533 0.0000
vt 1.0000 0.6533 1.0000
vt 0.0000 0.6533 1.0000
vt 0.0000 0.3467 1.0000
vt 1.0000 0.3467 1.0000
vt 1.0000 1.0000 0.3467
vt 0.0000 1.0000 0.3467
vt 0.0000 0.0000 0.3467
vt 1.0000 0.0000 0.3467
vt 0.6533 1.0000 1.0000
vt 0.3467 1.0000 1.0000
vt 0.3467 0.0000 1.0000
vt 0.6533 0.0000 1.0000
vt 1.0000 1.0000 0.6533
vt 0.0000 1.0000 0.6533
vt 0.0000 0.0000 0.6533
vt 1.0000 0.0000 0.6533
vt 0.6533 1.0000 0.0000
vt 0.3467 1.0000 0.0000
vt 0.3467 0.0000 0.0000
vt 0.6533 0.0000 0.0000
# 24 texture coords

o Object197
g Object197
usemtl Material__25
f 1/1/1 2/2/1 3/3/1 
f 3/3/1 4/4/1 1/1/1 
f 5/5/2 6/6/2 7/7/2 
f 7/7/2 8/8/2 5/5/2 
f 8/9/3 7/10/3 3/11/3 
f 3/11/3 2/12/3 8/9/3 
f 5/13/4 8/14/4 2/15/4 
f 2/15/4 1/16/4 5/13/4 
f 6/17/5 5/18/5 1/19/5 
f 1/19/5 4/20/5 6/17/5 
f 7/21/6 6/22/6 4/23/6 
f 4/23/6 3/24/6 7/21/6 
f 9/1/1 10/2/1 11/3/1 
f 11/3/1 12/4/1 9/1/1 
f 13/5/2 14/6/2 15/7/2 
f 15/7/2 16/8/2 13/5/2 
f 16/9/3 15/10/3 11/11/3 
f 11/11/3 10/12/3 16/9/3 
f 13/13/4 16/14/4 10/15/4 
f 10/15/4 9/16/4 13/13/4 
f 14/17/5 13/18/5 9/19/5 
f 9/19/5 12/20/5 14/17/5 
f 15/21/6 14/22/6 12/23/6 
f 12/23/6 11/24/6 15/21/6 
# 24 faces

