# 3ds Max Wavefront OBJ Exporter v0.97b - (c)2007 guruware
# File Created: 19.06.2020 18:09:07

mtllib 5.mtl

#
# object Object194
#

v  19.6850 0.0000 -295.2755
v  -19.6850 0.0000 -295.2755
v  -19.6850 0.0000 -492.1259
v  19.6850 0.0000 -492.1259
v  19.6850 118.1102 -295.2755
v  19.6850 118.1102 -492.1259
v  -19.6850 118.1102 -492.1259
v  -19.6850 118.1102 -295.2755
v  19.6850 0.0000 -98.4251
v  -19.6850 0.0000 -98.4251
v  19.6850 118.1102 -98.4251
v  -19.6850 118.1102 -98.4251
v  19.6850 0.0000 98.4252
v  -19.6850 0.0000 98.4252
v  -19.6850 0.0000 -98.4252
v  19.6850 0.0000 -98.4252
v  19.6850 118.1102 98.4252
v  19.6850 118.1102 -98.4252
v  -19.6850 118.1102 -98.4252
v  -19.6850 118.1102 98.4252
v  19.6850 0.0000 295.2755
v  -19.6850 0.0000 295.2755
v  -19.6850 0.0000 98.4251
v  19.6850 0.0000 98.4251
v  19.6850 118.1102 295.2755
v  19.6850 118.1102 98.4251
v  -19.6850 118.1102 98.4251
v  -19.6850 118.1102 295.2755
v  19.6851 0.0000 492.1259
v  -19.6850 0.0000 492.1259
v  19.6851 118.1102 492.1259
v  -19.6850 118.1102 492.1259
# 32 vertices

vn 0.0000 -1.0000 -0.0000
vn 0.0000 1.0000 -0.0000
vn -1.0000 0.0000 0.0000
vn 0.0000 0.0000 1.0000
vn 1.0000 0.0000 -0.0000
vn -0.0000 0.0000 -1.0000
# 6 vertex normals

vt 0.0000 0.6533 0.0000
vt 0.0000 0.3467 0.0000
vt 1.0000 0.3467 0.0000
vt 1.0000 0.6533 0.0000
vt 1.0000 0.6533 1.0000
vt 0.0000 0.6533 1.0000
vt 0.0000 0.3467 1.0000
vt 1.0000 0.3467 1.0000
vt 1.0000 1.0000 0.3467
vt 0.0000 1.0000 0.3467
vt 0.0000 0.0000 0.3467
vt 1.0000 0.0000 0.3467
vt 0.6533 1.0000 1.0000
vt 0.3467 1.0000 1.0000
vt 0.3467 0.0000 1.0000
vt 0.6533 0.0000 1.0000
vt 1.0000 1.0000 0.6533
vt 0.0000 1.0000 0.6533
vt 0.0000 0.0000 0.6533
vt 1.0000 0.0000 0.6533
vt 0.6533 1.0000 0.0000
vt 0.3467 1.0000 0.0000
vt 0.3467 0.0000 0.0000
vt 0.6533 0.0000 0.0000
# 24 texture coords

o Object194
g Object194
usemtl Material__25
f 1/1/1 2/2/1 3/3/1 
f 3/3/1 4/4/1 1/1/1 
f 5/5/2 6/6/2 7/7/2 
f 7/7/2 8/8/2 5/5/2 
f 8/9/3 7/10/3 3/11/3 
f 3/11/3 2/12/3 8/9/3 
f 5/13/4 8/14/4 2/15/4 
f 2/15/4 1/16/4 5/13/4 
f 6/17/5 5/18/5 1/19/5 
f 1/19/5 4/20/5 6/17/5 
f 7/21/6 6/22/6 4/23/6 
f 4/23/6 3/24/6 7/21/6 
f 9/1/1 10/2/1 2/3/1 
f 2/3/1 1/4/1 9/1/1 
f 11/5/2 5/6/2 8/7/2 
f 8/7/2 12/8/2 11/5/2 
f 12/9/3 8/10/3 2/11/3 
f 2/11/3 10/12/3 12/9/3 
f 11/13/4 12/14/4 10/15/4 
f 10/15/4 9/16/4 11/13/4 
f 5/17/5 11/18/5 9/19/5 
f 9/19/5 1/20/5 5/17/5 
f 8/21/6 5/22/6 1/23/6 
f 1/23/6 2/24/6 8/21/6 
f 13/1/1 14/2/1 15/3/1 
f 15/3/1 16/4/1 13/1/1 
f 17/5/2 18/6/2 19/7/2 
f 19/7/2 20/8/2 17/5/2 
f 20/9/3 19/10/3 15/11/3 
f 15/11/3 14/12/3 20/9/3 
f 17/13/4 20/14/4 14/15/4 
f 14/15/4 13/16/4 17/13/4 
f 18/17/5 17/18/5 13/19/5 
f 13/19/5 16/20/5 18/17/5 
f 19/21/6 18/22/6 16/23/6 
f 16/23/6 15/24/6 19/21/6 
f 21/1/1 22/2/1 23/3/1 
f 23/3/1 24/4/1 21/1/1 
f 25/5/2 26/6/2 27/7/2 
f 27/7/2 28/8/2 25/5/2 
f 28/9/3 27/10/3 23/11/3 
f 23/11/3 22/12/3 28/9/3 
f 25/13/4 28/14/4 22/15/4 
f 22/15/4 21/16/4 25/13/4 
f 26/17/5 25/18/5 21/19/5 
f 21/19/5 24/20/5 26/17/5 
f 27/21/6 26/22/6 24/23/6 
f 24/23/6 23/24/6 27/21/6 
f 29/1/1 30/2/1 22/3/1 
f 22/3/1 21/4/1 29/1/1 
f 31/5/2 25/6/2 28/7/2 
f 28/7/2 32/8/2 31/5/2 
f 32/9/3 28/10/3 22/11/3 
f 22/11/3 30/12/3 32/9/3 
f 31/13/4 32/14/4 30/15/4 
f 30/15/4 29/16/4 31/13/4 
f 25/17/5 31/18/5 29/19/5 
f 29/19/5 21/20/5 25/17/5 
f 28/21/6 25/22/6 21/23/6 
f 21/23/6 22/24/6 28/21/6 
# 60 faces

