# 3ds Max Wavefront OBJ Exporter v0.97b - (c)2007 guruware
# File Created: 07.06.2020 21:09:36

mtllib Floor.mtl

#
# object Plane001
#

v  -1958.8209 0.0000 1958.8209
v  1958.8209 0.0000 1958.8209
v  1958.8209 0.0000 -1958.8209
v  -1958.8209 0.0000 -1958.8209
# 4 vertices

vn 0.0000 1.0000 -0.0000
# 1 vertex normals

vt -16.5421 -16.5421 0.5000
vt 17.5421 -16.5421 0.5000
vt 17.5421 17.5421 0.5000
vt -16.5421 17.5421 0.5000
# 4 texture coords

o Plane001
g Plane001
usemtl Material__64
f 1/1/1 2/2/1 3/3/1 
f 3/3/1 4/4/1 1/1/1 
# 2 faces

