# 3ds Max Wavefront OBJ Exporter v0.97b - (c)2007 guruware
# File Created: 18.06.2020 01:57:58

mtllib Wall_6.mtl

#
# object Object147
#

v  2399.8064 0.0000 214.6364
v  2360.4363 0.0000 214.6364
v  2360.4363 0.0000 17.7860
v  2399.8064 0.0000 17.7860
v  2399.8064 118.1102 214.6364
v  2399.8064 118.1102 17.7860
v  2360.4363 118.1102 17.7860
v  2360.4363 118.1102 214.6364
v  2399.8064 0.0000 411.4867
v  2360.4363 0.0000 411.4867
v  2360.4363 0.0000 214.6363
v  2399.8064 0.0000 214.6363
v  2399.8064 118.1102 411.4867
v  2399.8064 118.1102 214.6363
v  2360.4363 118.1102 214.6363
v  2360.4363 118.1102 411.4867
v  2399.8064 0.0000 608.3370
v  2360.4363 0.0000 608.3370
v  2399.8064 118.1102 608.3370
v  2360.4363 118.1102 608.3370
v  2399.8064 0.0000 805.1874
v  2360.4363 0.0000 805.1874
v  2399.8064 118.1102 805.1874
v  2360.4363 118.1102 805.1874
v  2399.8064 0.0000 1002.0377
v  2360.4363 0.0000 1002.0377
v  2399.8064 118.1102 1002.0377
v  2360.4363 118.1102 1002.0377
v  2399.8064 0.0000 1198.8881
v  2360.4363 0.0000 1198.8881
v  2399.8064 118.1102 1198.8881
v  2360.4363 118.1102 1198.8881
# 32 vertices

vn 0.0000 -1.0000 -0.0000
vn 0.0000 1.0000 -0.0000
vn -1.0000 0.0000 0.0000
vn 0.0000 0.0000 1.0000
vn 1.0000 0.0000 -0.0000
vn -0.0000 0.0000 -1.0000
# 6 vertex normals

vt 0.0000 0.6533 0.0000
vt 0.0000 0.3467 0.0000
vt 1.0000 0.3467 0.0000
vt 1.0000 0.6533 0.0000
vt 1.0000 0.6533 1.0000
vt 0.0000 0.6533 1.0000
vt 0.0000 0.3467 1.0000
vt 1.0000 0.3467 1.0000
vt 1.0000 1.0000 0.3467
vt 0.0000 1.0000 0.3467
vt 0.0000 0.0000 0.3467
vt 1.0000 0.0000 0.3467
vt 0.6533 1.0000 1.0000
vt 0.3467 1.0000 1.0000
vt 0.3467 0.0000 1.0000
vt 0.6533 0.0000 1.0000
vt 1.0000 1.0000 0.6533
vt 0.0000 1.0000 0.6533
vt 0.0000 0.0000 0.6533
vt 1.0000 0.0000 0.6533
vt 0.6533 1.0000 0.0000
vt 0.3467 1.0000 0.0000
vt 0.3467 0.0000 0.0000
vt 0.6533 0.0000 0.0000
# 24 texture coords

o Object147
g Object147
usemtl Material__25
f 1/1/1 2/2/1 3/3/1 
f 3/3/1 4/4/1 1/1/1 
f 5/5/2 6/6/2 7/7/2 
f 7/7/2 8/8/2 5/5/2 
f 8/9/3 7/10/3 3/11/3 
f 3/11/3 2/12/3 8/9/3 
f 5/13/4 8/14/4 2/15/4 
f 2/15/4 1/16/4 5/13/4 
f 6/17/5 5/18/5 1/19/5 
f 1/19/5 4/20/5 6/17/5 
f 7/21/6 6/22/6 4/23/6 
f 4/23/6 3/24/6 7/21/6 
f 9/1/1 10/2/1 11/3/1 
f 11/3/1 12/4/1 9/1/1 
f 13/5/2 14/6/2 15/7/2 
f 15/7/2 16/8/2 13/5/2 
f 16/9/3 15/10/3 11/11/3 
f 11/11/3 10/12/3 16/9/3 
f 13/13/4 16/14/4 10/15/4 
f 10/15/4 9/16/4 13/13/4 
f 14/17/5 13/18/5 9/19/5 
f 9/19/5 12/20/5 14/17/5 
f 15/21/6 14/22/6 12/23/6 
f 12/23/6 11/24/6 15/21/6 
f 17/1/1 18/2/1 10/3/1 
f 10/3/1 9/4/1 17/1/1 
f 19/5/2 13/6/2 16/7/2 
f 16/7/2 20/8/2 19/5/2 
f 20/9/3 16/10/3 10/11/3 
f 10/11/3 18/12/3 20/9/3 
f 19/13/4 20/14/4 18/15/4 
f 18/15/4 17/16/4 19/13/4 
f 13/17/5 19/18/5 17/19/5 
f 17/19/5 9/20/5 13/17/5 
f 16/21/6 13/22/6 9/23/6 
f 9/23/6 10/24/6 16/21/6 
f 21/1/1 22/2/1 18/3/1 
f 18/3/1 17/4/1 21/1/1 
f 23/5/2 19/6/2 20/7/2 
f 20/7/2 24/8/2 23/5/2 
f 24/9/3 20/10/3 18/11/3 
f 18/11/3 22/12/3 24/9/3 
f 23/13/4 24/14/4 22/15/4 
f 22/15/4 21/16/4 23/13/4 
f 19/17/5 23/18/5 21/19/5 
f 21/19/5 17/20/5 19/17/5 
f 20/21/6 19/22/6 17/23/6 
f 17/23/6 18/24/6 20/21/6 
f 25/1/1 26/2/1 22/3/1 
f 22/3/1 21/4/1 25/1/1 
f 27/5/2 23/6/2 24/7/2 
f 24/7/2 28/8/2 27/5/2 
f 28/9/3 24/10/3 22/11/3 
f 22/11/3 26/12/3 28/9/3 
f 27/13/4 28/14/4 26/15/4 
f 26/15/4 25/16/4 27/13/4 
f 23/17/5 27/18/5 25/19/5 
f 25/19/5 21/20/5 23/17/5 
f 24/21/6 23/22/6 21/23/6 
f 21/23/6 22/24/6 24/21/6 
f 29/1/1 30/2/1 26/3/1 
f 26/3/1 25/4/1 29/1/1 
f 31/5/2 27/6/2 28/7/2 
f 28/7/2 32/8/2 31/5/2 
f 32/9/3 28/10/3 26/11/3 
f 26/11/3 30/12/3 32/9/3 
f 31/13/4 32/14/4 30/15/4 
f 30/15/4 29/16/4 31/13/4 
f 27/17/5 31/18/5 29/19/5 
f 29/19/5 25/20/5 27/17/5 
f 28/21/6 27/22/6 25/23/6 
f 25/23/6 26/24/6 28/21/6 
# 72 faces

