# 3ds Max Wavefront OBJ Exporter v0.97b - (c)2007 guruware
# File Created: 18.06.2020 01:59:04

mtllib Wall_3.mtl

#
# object Object171
#

v  2725.1262 0.0000 805.1874
v  2685.7561 0.0000 805.1874
v  2685.7561 0.0000 608.3370
v  2725.1262 0.0000 608.3370
v  2725.1262 118.1102 805.1874
v  2725.1262 118.1102 608.3370
v  2685.7561 118.1102 608.3370
v  2685.7561 118.1102 805.1874
v  2725.1262 0.0000 1002.0377
v  2685.7561 0.0000 1002.0377
v  2725.1262 118.1102 1002.0377
v  2685.7561 118.1102 1002.0377
v  2725.1262 0.0000 1198.8881
v  2685.7561 0.0000 1198.8881
v  2685.7561 0.0000 1002.0376
v  2725.1262 0.0000 1002.0376
v  2725.1262 118.1102 1198.8881
v  2725.1262 118.1102 1002.0376
v  2685.7561 118.1102 1002.0376
v  2685.7561 118.1102 1198.8881
# 20 vertices

vn 0.0000 -1.0000 -0.0000
vn 0.0000 1.0000 -0.0000
vn -1.0000 0.0000 0.0000
vn 0.0000 0.0000 1.0000
vn 1.0000 0.0000 -0.0000
vn -0.0000 0.0000 -1.0000
# 6 vertex normals

vt 0.0000 0.6533 0.0000
vt 0.0000 0.3467 0.0000
vt 1.0000 0.3467 0.0000
vt 1.0000 0.6533 0.0000
vt 1.0000 0.6533 1.0000
vt 0.0000 0.6533 1.0000
vt 0.0000 0.3467 1.0000
vt 1.0000 0.3467 1.0000
vt 1.0000 1.0000 0.3467
vt 0.0000 1.0000 0.3467
vt 0.0000 0.0000 0.3467
vt 1.0000 0.0000 0.3467
vt 0.6533 1.0000 1.0000
vt 0.3467 1.0000 1.0000
vt 0.3467 0.0000 1.0000
vt 0.6533 0.0000 1.0000
vt 1.0000 1.0000 0.6533
vt 0.0000 1.0000 0.6533
vt 0.0000 0.0000 0.6533
vt 1.0000 0.0000 0.6533
vt 0.6533 1.0000 0.0000
vt 0.3467 1.0000 0.0000
vt 0.3467 0.0000 0.0000
vt 0.6533 0.0000 0.0000
# 24 texture coords

o Object171
g Object171
usemtl Material__25
f 1/1/1 2/2/1 3/3/1 
f 3/3/1 4/4/1 1/1/1 
f 5/5/2 6/6/2 7/7/2 
f 7/7/2 8/8/2 5/5/2 
f 8/9/3 7/10/3 3/11/3 
f 3/11/3 2/12/3 8/9/3 
f 5/13/4 8/14/4 2/15/4 
f 2/15/4 1/16/4 5/13/4 
f 6/17/5 5/18/5 1/19/5 
f 1/19/5 4/20/5 6/17/5 
f 7/21/6 6/22/6 4/23/6 
f 4/23/6 3/24/6 7/21/6 
f 9/1/1 10/2/1 2/3/1 
f 2/3/1 1/4/1 9/1/1 
f 11/5/2 5/6/2 8/7/2 
f 8/7/2 12/8/2 11/5/2 
f 12/9/3 8/10/3 2/11/3 
f 2/11/3 10/12/3 12/9/3 
f 11/13/4 12/14/4 10/15/4 
f 10/15/4 9/16/4 11/13/4 
f 5/17/5 11/18/5 9/19/5 
f 9/19/5 1/20/5 5/17/5 
f 8/21/6 5/22/6 1/23/6 
f 1/23/6 2/24/6 8/21/6 
f 13/1/1 14/2/1 15/3/1 
f 15/3/1 16/4/1 13/1/1 
f 17/5/2 18/6/2 19/7/2 
f 19/7/2 20/8/2 17/5/2 
f 20/9/3 19/10/3 15/11/3 
f 15/11/3 14/12/3 20/9/3 
f 17/13/4 20/14/4 14/15/4 
f 14/15/4 13/16/4 17/13/4 
f 18/17/5 17/18/5 13/19/5 
f 13/19/5 16/20/5 18/17/5 
f 19/21/6 18/22/6 16/23/6 
f 16/23/6 15/24/6 19/21/6 
# 36 faces

