# 3ds Max Wavefront OBJ Exporter v0.97b - (c)2007 guruware
# File Created: 18.06.2020 01:57:48

mtllib Wall_7.mtl

#
# object Object133
#

v  2291.3665 0.0000 1198.8881
v  2251.9963 0.0000 1198.8881
v  2251.9963 0.0000 1002.0377
v  2291.3665 0.0000 1002.0377
v  2291.3665 118.1102 1198.8881
v  2291.3665 118.1102 1002.0377
v  2251.9963 118.1102 1002.0377
v  2251.9963 118.1102 1198.8881
v  2251.9963 0.0000 805.1874
v  2291.3665 0.0000 805.1874
v  2291.3665 118.1102 805.1874
v  2251.9963 118.1102 805.1874
v  2251.9963 0.0000 608.3370
v  2291.3665 0.0000 608.3370
v  2291.3665 118.1102 608.3370
v  2251.9963 118.1102 608.3370
v  2251.9963 0.0000 411.4867
v  2291.3665 0.0000 411.4867
v  2291.3665 118.1102 411.4867
v  2251.9963 118.1102 411.4867
v  2251.9963 0.0000 214.6364
v  2291.3665 0.0000 214.6364
v  2291.3665 118.1102 214.6364
v  2251.9963 118.1102 214.6364
v  2251.9963 0.0000 17.7860
v  2291.3665 0.0000 17.7860
v  2291.3665 118.1102 17.7860
v  2251.9963 118.1102 17.7860
v  2251.9963 0.0000 -179.0643
v  2291.3665 0.0000 -179.0643
v  2291.3665 118.1102 -179.0643
v  2251.9963 118.1102 -179.0643
# 32 vertices

vn 0.0000 -1.0000 -0.0000
vn 0.0000 1.0000 -0.0000
vn -1.0000 0.0000 0.0000
vn 0.0000 0.0000 1.0000
vn 1.0000 0.0000 -0.0000
vn -0.0000 0.0000 -1.0000
# 6 vertex normals

vt 0.0000 0.6533 0.0000
vt 0.0000 0.3467 0.0000
vt 1.0000 0.3467 0.0000
vt 1.0000 0.6533 0.0000
vt 1.0000 0.6533 1.0000
vt 0.0000 0.6533 1.0000
vt 0.0000 0.3467 1.0000
vt 1.0000 0.3467 1.0000
vt 1.0000 1.0000 0.3467
vt 0.0000 1.0000 0.3467
vt 0.0000 0.0000 0.3467
vt 1.0000 0.0000 0.3467
vt 0.6533 1.0000 1.0000
vt 0.3467 1.0000 1.0000
vt 0.3467 0.0000 1.0000
vt 0.6533 0.0000 1.0000
vt 1.0000 1.0000 0.6533
vt 0.0000 1.0000 0.6533
vt 0.0000 0.0000 0.6533
vt 1.0000 0.0000 0.6533
vt 0.6533 1.0000 0.0000
vt 0.3467 1.0000 0.0000
vt 0.3467 0.0000 0.0000
vt 0.6533 0.0000 0.0000
# 24 texture coords

o Object133
g Object133
usemtl Material__25
f 1/1/1 2/2/1 3/3/1 
f 3/3/1 4/4/1 1/1/1 
f 5/5/2 6/6/2 7/7/2 
f 7/7/2 8/8/2 5/5/2 
f 8/9/3 7/10/3 3/11/3 
f 3/11/3 2/12/3 8/9/3 
f 5/13/4 8/14/4 2/15/4 
f 2/15/4 1/16/4 5/13/4 
f 6/17/5 5/18/5 1/19/5 
f 1/19/5 4/20/5 6/17/5 
f 7/21/6 6/22/6 4/23/6 
f 4/23/6 3/24/6 7/21/6 
f 4/1/1 3/2/1 9/3/1 
f 9/3/1 10/4/1 4/1/1 
f 6/5/2 11/6/2 12/7/2 
f 12/7/2 7/8/2 6/5/2 
f 7/9/3 12/10/3 9/11/3 
f 9/11/3 3/12/3 7/9/3 
f 6/13/4 7/14/4 3/15/4 
f 3/15/4 4/16/4 6/13/4 
f 11/17/5 6/18/5 4/19/5 
f 4/19/5 10/20/5 11/17/5 
f 12/21/6 11/22/6 10/23/6 
f 10/23/6 9/24/6 12/21/6 
f 10/1/1 9/2/1 13/3/1 
f 13/3/1 14/4/1 10/1/1 
f 11/5/2 15/6/2 16/7/2 
f 16/7/2 12/8/2 11/5/2 
f 12/9/3 16/10/3 13/11/3 
f 13/11/3 9/12/3 12/9/3 
f 11/13/4 12/14/4 9/15/4 
f 9/15/4 10/16/4 11/13/4 
f 15/17/5 11/18/5 10/19/5 
f 10/19/5 14/20/5 15/17/5 
f 16/21/6 15/22/6 14/23/6 
f 14/23/6 13/24/6 16/21/6 
f 14/1/1 13/2/1 17/3/1 
f 17/3/1 18/4/1 14/1/1 
f 15/5/2 19/6/2 20/7/2 
f 20/7/2 16/8/2 15/5/2 
f 16/9/3 20/10/3 17/11/3 
f 17/11/3 13/12/3 16/9/3 
f 15/13/4 16/14/4 13/15/4 
f 13/15/4 14/16/4 15/13/4 
f 19/17/5 15/18/5 14/19/5 
f 14/19/5 18/20/5 19/17/5 
f 20/21/6 19/22/6 18/23/6 
f 18/23/6 17/24/6 20/21/6 
f 18/1/1 17/2/1 21/3/1 
f 21/3/1 22/4/1 18/1/1 
f 19/5/2 23/6/2 24/7/2 
f 24/7/2 20/8/2 19/5/2 
f 20/9/3 24/10/3 21/11/3 
f 21/11/3 17/12/3 20/9/3 
f 19/13/4 20/14/4 17/15/4 
f 17/15/4 18/16/4 19/13/4 
f 23/17/5 19/18/5 18/19/5 
f 18/19/5 22/20/5 23/17/5 
f 24/21/6 23/22/6 22/23/6 
f 22/23/6 21/24/6 24/21/6 
f 22/1/1 21/2/1 25/3/1 
f 25/3/1 26/4/1 22/1/1 
f 23/5/2 27/6/2 28/7/2 
f 28/7/2 24/8/2 23/5/2 
f 24/9/3 28/10/3 25/11/3 
f 25/11/3 21/12/3 24/9/3 
f 23/13/4 24/14/4 21/15/4 
f 21/15/4 22/16/4 23/13/4 
f 27/17/5 23/18/5 22/19/5 
f 22/19/5 26/20/5 27/17/5 
f 28/21/6 27/22/6 26/23/6 
f 26/23/6 25/24/6 28/21/6 
f 26/1/1 25/2/1 29/3/1 
f 29/3/1 30/4/1 26/1/1 
f 27/5/2 31/6/2 32/7/2 
f 32/7/2 28/8/2 27/5/2 
f 28/9/3 32/10/3 29/11/3 
f 29/11/3 25/12/3 28/9/3 
f 27/13/4 28/14/4 25/15/4 
f 25/15/4 26/16/4 27/13/4 
f 31/17/5 27/18/5 26/19/5 
f 26/19/5 30/20/5 31/17/5 
f 32/21/6 31/22/6 30/23/6 
f 30/23/6 29/24/6 32/21/6 
# 84 faces

