# 3ds Max Wavefront OBJ Exporter v0.97b - (c)2007 guruware
# File Created: 18.06.2020 01:55:48

mtllib Wall_9.mtl

#
# object Object123
#

v  2074.4866 0.0000 -375.9146
v  2035.1165 0.0000 -375.9146
v  2035.1165 0.0000 -572.7650
v  2074.4866 0.0000 -572.7650
v  2074.4866 118.1102 -375.9146
v  2074.4866 118.1102 -572.7650
v  2035.1165 118.1102 -572.7650
v  2035.1165 118.1102 -375.9146
v  2074.4866 0.0000 -179.0643
v  2035.1165 0.0000 -179.0643
v  2035.1165 0.0000 -375.9147
v  2074.4866 0.0000 -375.9147
v  2074.4866 118.1102 -179.0643
v  2074.4866 118.1102 -375.9147
v  2035.1165 118.1102 -375.9147
v  2035.1165 118.1102 -179.0643
v  2074.4866 0.0000 17.7860
v  2035.1165 0.0000 17.7860
v  2035.1165 0.0000 -179.0644
v  2074.4866 0.0000 -179.0644
v  2074.4866 118.1102 17.7860
v  2074.4866 118.1102 -179.0644
v  2035.1165 118.1102 -179.0644
v  2035.1165 118.1102 17.7860
v  2074.4866 0.0000 214.6364
v  2035.1165 0.0000 214.6364
v  2074.4866 118.1102 214.6364
v  2035.1165 118.1102 214.6364
v  2074.4866 0.0000 411.4867
v  2035.1165 0.0000 411.4867
v  2074.4866 118.1102 411.4867
v  2035.1165 118.1102 411.4867
v  2074.4866 0.0000 608.3370
v  2035.1165 0.0000 608.3370
v  2074.4866 118.1102 608.3370
v  2035.1165 118.1102 608.3370
v  2074.4866 0.0000 805.1874
v  2035.1165 0.0000 805.1874
v  2074.4866 118.1102 805.1874
v  2035.1165 118.1102 805.1874
v  2074.4866 0.0000 1002.0377
v  2035.1165 0.0000 1002.0377
v  2074.4866 118.1102 1002.0377
v  2035.1165 118.1102 1002.0377
v  2074.4866 0.0000 1198.8881
v  2035.1165 0.0000 1198.8881
v  2074.4866 118.1102 1198.8881
v  2035.1165 118.1102 1198.8881
# 48 vertices

vn 0.0000 -1.0000 -0.0000
vn 0.0000 1.0000 -0.0000
vn -1.0000 0.0000 0.0000
vn 0.0000 0.0000 1.0000
vn 1.0000 0.0000 -0.0000
vn -0.0000 0.0000 -1.0000
# 6 vertex normals

vt 0.0000 0.6533 0.0000
vt 0.0000 0.3467 0.0000
vt 1.0000 0.3467 0.0000
vt 1.0000 0.6533 0.0000
vt 1.0000 0.6533 1.0000
vt 0.0000 0.6533 1.0000
vt 0.0000 0.3467 1.0000
vt 1.0000 0.3467 1.0000
vt 1.0000 1.0000 0.3467
vt 0.0000 1.0000 0.3467
vt 0.0000 0.0000 0.3467
vt 1.0000 0.0000 0.3467
vt 0.6533 1.0000 1.0000
vt 0.3467 1.0000 1.0000
vt 0.3467 0.0000 1.0000
vt 0.6533 0.0000 1.0000
vt 1.0000 1.0000 0.6533
vt 0.0000 1.0000 0.6533
vt 0.0000 0.0000 0.6533
vt 1.0000 0.0000 0.6533
vt 0.6533 1.0000 0.0000
vt 0.3467 1.0000 0.0000
vt 0.3467 0.0000 0.0000
vt 0.6533 0.0000 0.0000
# 24 texture coords

o Object123
g Object123
usemtl Material__25
f 1/1/1 2/2/1 3/3/1 
f 3/3/1 4/4/1 1/1/1 
f 5/5/2 6/6/2 7/7/2 
f 7/7/2 8/8/2 5/5/2 
f 8/9/3 7/10/3 3/11/3 
f 3/11/3 2/12/3 8/9/3 
f 5/13/4 8/14/4 2/15/4 
f 2/15/4 1/16/4 5/13/4 
f 6/17/5 5/18/5 1/19/5 
f 1/19/5 4/20/5 6/17/5 
f 7/21/6 6/22/6 4/23/6 
f 4/23/6 3/24/6 7/21/6 
f 9/1/1 10/2/1 11/3/1 
f 11/3/1 12/4/1 9/1/1 
f 13/5/2 14/6/2 15/7/2 
f 15/7/2 16/8/2 13/5/2 
f 16/9/3 15/10/3 11/11/3 
f 11/11/3 10/12/3 16/9/3 
f 13/13/4 16/14/4 10/15/4 
f 10/15/4 9/16/4 13/13/4 
f 14/17/5 13/18/5 9/19/5 
f 9/19/5 12/20/5 14/17/5 
f 15/21/6 14/22/6 12/23/6 
f 12/23/6 11/24/6 15/21/6 
f 17/1/1 18/2/1 19/3/1 
f 19/3/1 20/4/1 17/1/1 
f 21/5/2 22/6/2 23/7/2 
f 23/7/2 24/8/2 21/5/2 
f 24/9/3 23/10/3 19/11/3 
f 19/11/3 18/12/3 24/9/3 
f 21/13/4 24/14/4 18/15/4 
f 18/15/4 17/16/4 21/13/4 
f 22/17/5 21/18/5 17/19/5 
f 17/19/5 20/20/5 22/17/5 
f 23/21/6 22/22/6 20/23/6 
f 20/23/6 19/24/6 23/21/6 
f 25/1/1 26/2/1 18/3/1 
f 18/3/1 17/4/1 25/1/1 
f 27/5/2 21/6/2 24/7/2 
f 24/7/2 28/8/2 27/5/2 
f 28/9/3 24/10/3 18/11/3 
f 18/11/3 26/12/3 28/9/3 
f 27/13/4 28/14/4 26/15/4 
f 26/15/4 25/16/4 27/13/4 
f 21/17/5 27/18/5 25/19/5 
f 25/19/5 17/20/5 21/17/5 
f 24/21/6 21/22/6 17/23/6 
f 17/23/6 18/24/6 24/21/6 
f 29/1/1 30/2/1 26/3/1 
f 26/3/1 25/4/1 29/1/1 
f 31/5/2 27/6/2 28/7/2 
f 28/7/2 32/8/2 31/5/2 
f 32/9/3 28/10/3 26/11/3 
f 26/11/3 30/12/3 32/9/3 
f 31/13/4 32/14/4 30/15/4 
f 30/15/4 29/16/4 31/13/4 
f 27/17/5 31/18/5 29/19/5 
f 29/19/5 25/20/5 27/17/5 
f 28/21/6 27/22/6 25/23/6 
f 25/23/6 26/24/6 28/21/6 
f 33/1/1 34/2/1 30/3/1 
f 30/3/1 29/4/1 33/1/1 
f 35/5/2 31/6/2 32/7/2 
f 32/7/2 36/8/2 35/5/2 
f 36/9/3 32/10/3 30/11/3 
f 30/11/3 34/12/3 36/9/3 
f 35/13/4 36/14/4 34/15/4 
f 34/15/4 33/16/4 35/13/4 
f 31/17/5 35/18/5 33/19/5 
f 33/19/5 29/20/5 31/17/5 
f 32/21/6 31/22/6 29/23/6 
f 29/23/6 30/24/6 32/21/6 
f 37/1/1 38/2/1 34/3/1 
f 34/3/1 33/4/1 37/1/1 
f 39/5/2 35/6/2 36/7/2 
f 36/7/2 40/8/2 39/5/2 
f 40/9/3 36/10/3 34/11/3 
f 34/11/3 38/12/3 40/9/3 
f 39/13/4 40/14/4 38/15/4 
f 38/15/4 37/16/4 39/13/4 
f 35/17/5 39/18/5 37/19/5 
f 37/19/5 33/20/5 35/17/5 
f 36/21/6 35/22/6 33/23/6 
f 33/23/6 34/24/6 36/21/6 
f 41/1/1 42/2/1 38/3/1 
f 38/3/1 37/4/1 41/1/1 
f 43/5/2 39/6/2 40/7/2 
f 40/7/2 44/8/2 43/5/2 
f 44/9/3 40/10/3 38/11/3 
f 38/11/3 42/12/3 44/9/3 
f 43/13/4 44/14/4 42/15/4 
f 42/15/4 41/16/4 43/13/4 
f 39/17/5 43/18/5 41/19/5 
f 41/19/5 37/20/5 39/17/5 
f 40/21/6 39/22/6 37/23/6 
f 37/23/6 38/24/6 40/21/6 
f 45/1/1 46/2/1 42/3/1 
f 42/3/1 41/4/1 45/1/1 
f 47/5/2 43/6/2 44/7/2 
f 44/7/2 48/8/2 47/5/2 
f 48/9/3 44/10/3 42/11/3 
f 42/11/3 46/12/3 48/9/3 
f 47/13/4 48/14/4 46/15/4 
f 46/15/4 45/16/4 47/13/4 
f 43/17/5 47/18/5 45/19/5 
f 45/19/5 41/20/5 43/17/5 
f 44/21/6 43/22/6 41/23/6 
f 41/23/6 42/24/6 44/21/6 
# 108 faces

