# 3ds Max Wavefront OBJ Exporter v0.97b - (c)2007 guruware
# File Created: 18.06.2020 01:58:55

mtllib Wall_4.mtl

#
# object Object163
#

v  2616.6863 0.0000 608.3370
v  2577.3162 0.0000 608.3370
v  2577.3162 0.0000 411.4867
v  2616.6863 0.0000 411.4867
v  2616.6863 118.1102 608.3370
v  2616.6863 118.1102 411.4867
v  2577.3162 118.1102 411.4867
v  2577.3162 118.1102 608.3370
v  2616.6863 0.0000 805.1874
v  2577.3162 0.0000 805.1874
v  2616.6863 118.1102 805.1874
v  2577.3162 118.1102 805.1874
v  2616.6863 0.0000 1002.0378
v  2577.3162 0.0000 1002.0378
v  2616.6863 118.1102 1002.0378
v  2577.3162 118.1102 1002.0378
v  2616.6863 0.0000 1198.8881
v  2577.3162 0.0000 1198.8881
v  2577.3162 0.0000 1002.0377
v  2616.6863 0.0000 1002.0377
v  2616.6863 118.1102 1198.8881
v  2616.6863 118.1102 1002.0377
v  2577.3162 118.1102 1002.0377
v  2577.3162 118.1102 1198.8881
# 24 vertices

vn 0.0000 -1.0000 -0.0000
vn 0.0000 1.0000 -0.0000
vn -1.0000 0.0000 0.0000
vn 0.0000 0.0000 1.0000
vn 1.0000 0.0000 -0.0000
vn -0.0000 0.0000 -1.0000
# 6 vertex normals

vt 0.0000 0.6533 0.0000
vt 0.0000 0.3467 0.0000
vt 1.0000 0.3467 0.0000
vt 1.0000 0.6533 0.0000
vt 1.0000 0.6533 1.0000
vt 0.0000 0.6533 1.0000
vt 0.0000 0.3467 1.0000
vt 1.0000 0.3467 1.0000
vt 1.0000 1.0000 0.3467
vt 0.0000 1.0000 0.3467
vt 0.0000 0.0000 0.3467
vt 1.0000 0.0000 0.3467
vt 0.6533 1.0000 1.0000
vt 0.3467 1.0000 1.0000
vt 0.3467 0.0000 1.0000
vt 0.6533 0.0000 1.0000
vt 1.0000 1.0000 0.6533
vt 0.0000 1.0000 0.6533
vt 0.0000 0.0000 0.6533
vt 1.0000 0.0000 0.6533
vt 0.6533 1.0000 0.0000
vt 0.3467 1.0000 0.0000
vt 0.3467 0.0000 0.0000
vt 0.6533 0.0000 0.0000
# 24 texture coords

o Object163
g Object163
usemtl Material__25
f 1/1/1 2/2/1 3/3/1 
f 3/3/1 4/4/1 1/1/1 
f 5/5/2 6/6/2 7/7/2 
f 7/7/2 8/8/2 5/5/2 
f 8/9/3 7/10/3 3/11/3 
f 3/11/3 2/12/3 8/9/3 
f 5/13/4 8/14/4 2/15/4 
f 2/15/4 1/16/4 5/13/4 
f 6/17/5 5/18/5 1/19/5 
f 1/19/5 4/20/5 6/17/5 
f 7/21/6 6/22/6 4/23/6 
f 4/23/6 3/24/6 7/21/6 
f 9/1/1 10/2/1 2/3/1 
f 2/3/1 1/4/1 9/1/1 
f 11/5/2 5/6/2 8/7/2 
f 8/7/2 12/8/2 11/5/2 
f 12/9/3 8/10/3 2/11/3 
f 2/11/3 10/12/3 12/9/3 
f 11/13/4 12/14/4 10/15/4 
f 10/15/4 9/16/4 11/13/4 
f 5/17/5 11/18/5 9/19/5 
f 9/19/5 1/20/5 5/17/5 
f 8/21/6 5/22/6 1/23/6 
f 1/23/6 2/24/6 8/21/6 
f 13/1/1 14/2/1 10/3/1 
f 10/3/1 9/4/1 13/1/1 
f 15/5/2 11/6/2 12/7/2 
f 12/7/2 16/8/2 15/5/2 
f 16/9/3 12/10/3 10/11/3 
f 10/11/3 14/12/3 16/9/3 
f 15/13/4 16/14/4 14/15/4 
f 14/15/4 13/16/4 15/13/4 
f 11/17/5 15/18/5 13/19/5 
f 13/19/5 9/20/5 11/17/5 
f 12/21/6 11/22/6 9/23/6 
f 9/23/6 10/24/6 12/21/6 
f 17/1/1 18/2/1 19/3/1 
f 19/3/1 20/4/1 17/1/1 
f 21/5/2 22/6/2 23/7/2 
f 23/7/2 24/8/2 21/5/2 
f 24/9/3 23/10/3 19/11/3 
f 19/11/3 18/12/3 24/9/3 
f 21/13/4 24/14/4 18/15/4 
f 18/15/4 17/16/4 21/13/4 
f 22/17/5 21/18/5 17/19/5 
f 17/19/5 20/20/5 22/17/5 
f 23/21/6 22/22/6 20/23/6 
f 20/23/6 19/24/6 23/21/6 
# 48 faces

